HIERARCHY
ROOT Hips
{
	OFFSET 0.000000 0.000000 0.000000
	CHANNELS 6 Xposition Yposition Zposition Zrotation Yrotation Xrotation 
	JOINT LHipJoint
	{
		OFFSET 0.000000 0.000000 0.000000
		CHANNELS 3 Zrotation Yrotation Xrotation
		JOINT LeftUpLeg
		{
			OFFSET 1.363060 -1.794630 0.839290
			CHANNELS 3 Zrotation Yrotation Xrotation
			JOINT LeftLeg
			{
				OFFSET 2.448110 -6.726130 0.000000
				CHANNELS 3 Zrotation Yrotation Xrotation
				JOINT LeftFoot
				{
					OFFSET 2.562200 -7.039590 0.000000
					CHANNELS 3 Zrotation Yrotation Xrotation
					JOINT LeftToeBase
					{
						OFFSET 0.157640 -0.433110 2.322550
						CHANNELS 3 Zrotation Yrotation Xrotation
						End Site
						{
							OFFSET 0.000000 0.000000 0.000000
						}
					}
				}
			}
		}
	}
	JOINT RHipJoint
	{
		OFFSET 0.000000 0.000000 0.000000
		CHANNELS 3 Zrotation Yrotation Xrotation
		JOINT RightUpLeg
		{
			OFFSET -1.305520 -1.794630 0.839290
			CHANNELS 3 Zrotation Yrotation Xrotation
			JOINT RightLeg
			{
				OFFSET -2.542530 -6.985550 0.000000
				CHANNELS 3 Zrotation Yrotation Xrotation
				JOINT RightFoot
				{
					OFFSET -2.568260 -7.056230 0.000000
					CHANNELS 3 Zrotation Yrotation Xrotation
					JOINT RightToeBase
					{
						OFFSET -0.164730 -0.452590 2.363150
						CHANNELS 3 Zrotation Yrotation Xrotation
						End Site
						{
							OFFSET 0.000000 0.000000 0.000000
						}
					}
				}
			}
		}
	}
	JOINT LowerBack
	{
		OFFSET 0.000000 0.000000 0.000000
		CHANNELS 3 Zrotation Yrotation Xrotation
		JOINT Spine
		{
			OFFSET 0.028270 2.035590 -0.193380
			CHANNELS 3 Zrotation Yrotation Xrotation
			JOINT Spine1
			{
				OFFSET 0.056720 2.048850 -0.042750
				CHANNELS 3 Zrotation Yrotation Xrotation
				JOINT Neck
				{
					OFFSET 0.000000 0.000000 0.000000
					CHANNELS 3 Zrotation Yrotation Xrotation
					JOINT Neck1
					{
						OFFSET -0.054170 1.746240 0.172020
						CHANNELS 3 Zrotation Yrotation Xrotation
						JOINT Head
						{
							OFFSET 0.104070 1.761360 -0.123970
							CHANNELS 3 Zrotation Yrotation Xrotation
							End Site
							{
								OFFSET 0.000000 0.000000 0.000000
							}
						}
					}
				}
				JOINT LeftShoulder
				{
					OFFSET 0.000000 0.000000 0.000000
					CHANNELS 3 Zrotation Yrotation Xrotation
					JOINT LeftArm
					{
						OFFSET 3.362410 1.200890 -0.311210
						CHANNELS 3 Zrotation Yrotation Xrotation
						JOINT LeftForeArm
						{
							OFFSET 4.983000 -0.000000 -0.000000
							CHANNELS 3 Zrotation Yrotation Xrotation
							JOINT LeftHand
							{
								OFFSET 3.483560 -0.000000 -0.000000
								CHANNELS 3 Zrotation Yrotation Xrotation
								JOINT LeftFingerBase
								{
									OFFSET 0.000000 0.000000 0.000000
									CHANNELS 3 Zrotation Yrotation Xrotation
									JOINT LeftHandIndex1
									{
										OFFSET 0.715260 -0.000000 -0.000000
										CHANNELS 3 Zrotation Yrotation Xrotation
										End Site
										{
											OFFSET 0.000000 0.000000 0.000000
										}
									}
								}
								JOINT LThumb
								{
									OFFSET 0.000000 0.000000 0.000000
									CHANNELS 3 Zrotation Yrotation Xrotation
									End Site
									{
										OFFSET 0.000000 0.000000 0.000000
									}
								}
							}
						}
					}
				}
				JOINT RightShoulder
				{
					OFFSET 0.000000 0.000000 0.000000
					CHANNELS 3 Zrotation Yrotation Xrotation
					JOINT RightArm
					{
						OFFSET -3.136600 1.374050 -0.404650
						CHANNELS 3 Zrotation Yrotation Xrotation
						JOINT RightForeArm
						{
							OFFSET -5.241900 -0.000000 -0.000000
							CHANNELS 3 Zrotation Yrotation Xrotation
							JOINT RightHand
							{
								OFFSET -3.444170 -0.000000 -0.000000
								CHANNELS 3 Zrotation Yrotation Xrotation
								JOINT RightFingerBase
								{
									OFFSET 0.000000 0.000000 0.000000
									CHANNELS 3 Zrotation Yrotation Xrotation
									JOINT RightHandIndex1
									{
										OFFSET -0.622530 -0.000000 -0.000000
										CHANNELS 3 Zrotation Yrotation Xrotation
										End Site
										{
											OFFSET 0.000000 0.000000 0.000000
										}
									}
								}
								JOINT RThumb
								{
									OFFSET 0.000000 0.000000 0.000000
									CHANNELS 3 Zrotation Yrotation Xrotation
									End Site
									{
										OFFSET 0.000000 0.000000 0.000000
									}
								}
							}
						}
					}
				}
			}
		}
	}
}
MOTION
Frames: 4
Frame Time: 0.008333
-0.632949 18.308525 6.079955 -5.214724 -1.382156 1.597698 1.798587 3.880213 3.156572 -9.906044 -10.231710 -4.428580 1.007555 7.236568 23.643692 -0.560843 7.023035 -16.469554 8.369000 -16.384000 -53.881000 -2.957442 -3.914200 2.063447 3.107941 1.871725 -1.936653 0.041819 0.585647 1.385097 0.270828 -1.068795 5.887914 0.000000 0.000000 0.000000 4.489471 0.894390 -5.913366 3.726147 0.170465 17.376860 -4.512760 0.359753 -12.943975 -1.791343 -3.115059 -27.579419 2.852151 -3.391785 40.670246 0.335800 -0.838500 12.521100 1.705691 -7.296588 0.827095 -92.174833 10.099114 25.021525 24.787549 -33.632307 -6.573561 0.685579 0.045915 7.663362 8.526726 -29.541874 -3.914200 -7.125000 0.000000 0.000000 -13.344600 0.709100 13.552700 -4.215157 9.584888 3.389251 94.903999 -10.989150 21.297698 -31.847733 39.382244 -8.877611 0.829150 -3.115465 20.468676 -5.541963 -30.955001 3.557200 7.125000 0.000000 0.000000 25.059800 -56.587900 -7.442900 
-0.632360 18.308329 6.081132 -5.182296 -1.406337 1.580011 1.784281 3.878690 3.158784 -9.938179 -10.239889 -4.385011 1.005344 7.236482 23.643349 -0.560494 7.048969 -16.543028 8.376800 -16.389500 -53.908900 -2.970231 -3.915948 2.060413 3.105847 1.871937 -1.935837 0.042127 0.586140 1.385326 0.271027 -1.068156 5.887768 0.000000 0.000000 0.000000 4.527080 0.913769 -5.908757 3.602138 0.200679 17.370305 -4.485262 0.372662 -12.941111 -1.801544 -3.110362 -27.537807 2.926319 -3.409019 40.658354 0.354800 -0.834700 12.511200 1.717696 -7.301009 0.826031 -92.171572 10.123554 25.140149 24.912010 -33.740957 -6.593504 0.659958 0.062731 7.780652 7.998140 -28.557733 -3.552900 -7.125000 0.000000 0.000000 -13.595500 1.716500 13.573500 -4.192825 9.586766 3.390152 94.917390 -11.025708 21.290915 -31.882374 39.408793 -8.893819 0.828954 -3.113994 20.452597 -5.573703 -30.945190 3.570600 7.125000 0.000000 0.000000 25.022900 -56.585400 -7.429400 
-0.631575 18.307838 6.082309 -5.232239 -1.439544 1.590368 1.798765 3.880941 3.155362 -9.904868 -10.228294 -4.389249 1.005564 7.238102 23.648118 -0.564433 7.066669 -16.551558 8.379400 -16.391300 -53.917900 -2.956940 -3.912897 2.060311 3.108635 1.871561 -1.937647 0.041802 0.585120 1.385001 0.270733 -1.069264 5.887673 0.000000 0.000000 0.000000 4.521795 0.918752 -5.921759 3.738917 0.202899 17.344661 -4.539400 0.371758 -12.920368 -1.804341 -3.104334 -27.536989 2.902334 -3.388820 40.677132 0.351300 -0.828300 12.516500 1.695056 -7.301779 0.828804 -92.172808 10.158252 25.204679 24.999918 -33.837160 -6.644751 0.666605 0.076603 7.729061 8.452223 -28.551177 -3.773400 -7.125000 0.000000 0.000000 -13.335900 1.655500 13.314000 -4.206408 9.591852 3.395454 94.911205 -11.042313 21.296434 -31.903110 39.423983 -8.906114 0.826345 -3.114148 20.436423 -5.630761 -30.977144 3.599900 7.125000 0.000000 0.000000 24.990200 -56.622400 -7.441700 
-0.632066 18.307937 6.082309 -5.264476 -1.427583 1.643749 1.820555 3.876892 3.138728 -9.880750 -10.193031 -4.457598 1.008358 7.239321 23.649335 -0.559551 7.017459 -16.467596 8.376300 -16.389200 -53.907100 -2.938581 -3.907651 2.053643 3.114521 1.870105 -1.942787 0.041389 0.581954 1.383919 0.269720 -1.072518 5.886811 0.000000 0.000000 0.000000 4.441357 0.904292 -5.910658 3.929162 0.182299 17.212139 -4.569681 0.365378 -12.882373 -1.790768 -3.097907 -27.523738 2.784591 -3.342950 40.687149 0.326100 -0.826900 12.512200 1.653549 -7.303782 0.839423 -92.182861 10.196762 25.199663 25.032447 -33.874218 -6.678729 0.679185 0.080719 7.653109 8.931918 -28.868546 -4.043300 -7.125000 0.000000 0.000000 -13.078500 1.282800 13.131600 -4.219347 9.599971 3.408982 94.876718 -11.057887 21.342109 -31.897392 39.413488 -8.907077 0.823519 -3.116160 20.407462 -5.681521 -31.046831 3.630400 7.125000 0.000000 0.000000 24.989300 -56.690200 -7.483300 
